<?xml version="1.0" encoding="iso-8859-1"?>
<!-- Uploaded to: SVG Repo, www.svgrepo.com, Generator: SVG Repo Mixer Tools -->
<!DOCTYPE svg PUBLIC "-//W3C//DTD SVG 1.1//EN" "http://www.w3.org/Graphics/SVG/1.1/DTD/svg11.dtd">
<svg fill="#000000" height="800px" width="800px" version="1.1" id="Capa_1" xmlns="http://www.w3.org/2000/svg" xmlns:xlink="http://www.w3.org/1999/xlink" 
	 viewBox="0 0 475.351 475.351" xml:space="preserve">
<g>
	<path d="M443.22,213.787h32.13C464.107,101.099,374.259,11.236,261.564,0v32.132C356.637,43.119,432.223,118.706,443.22,213.787z"
		/>
	<path d="M32.132,261.564H0c11.244,112.687,101.091,202.551,213.787,213.786v-32.13C118.714,432.231,43.127,356.645,32.132,261.564z
		"/>
	<path d="M261.564,443.22v32.13c112.695-11.236,202.543-101.099,213.786-213.786h-32.13
		C432.223,356.645,356.637,432.231,261.564,443.22z"/>
	<path d="M213.787,32.132V0C101.091,11.236,11.244,101.099,0,213.787h32.132C43.127,118.706,118.714,43.119,213.787,32.132z"/>
	<path d="M351.008,213.787h32.24c-10.202-62.288-59.396-111.49-121.684-121.684v32.241
		C306.294,133.76,341.583,169.057,351.008,213.787z"/>
	<path d="M124.343,261.564H92.103c10.202,62.288,59.396,111.49,121.684,121.684v-32.241
		C169.057,341.591,133.768,306.294,124.343,261.564z"/>
	<path d="M261.564,351.008v32.241c62.288-10.194,111.482-59.396,121.684-121.684h-32.24
		C341.583,306.294,306.294,341.591,261.564,351.008z"/>
	<path d="M124.343,213.787c9.425-44.73,44.714-80.026,89.443-89.443V92.103c-62.288,10.194-111.481,59.396-121.684,121.684H124.343z
		"/>
	<path d="M290.524,261.564c3.313-7.302,5.256-15.351,5.256-23.889s-1.943-16.587-5.256-23.889
		c-5.818-12.84-16.128-23.142-28.96-28.96c-7.31-3.305-15.351-5.256-23.889-5.256c-8.538,0-16.579,1.951-23.889,5.256
		c-12.832,5.818-23.142,16.12-28.96,28.96c-3.313,7.302-5.256,15.351-5.256,23.889s1.943,16.587,5.256,23.889
		c5.818,12.84,16.128,23.142,28.96,28.96c7.31,3.305,15.351,5.256,23.889,5.256c8.538,0,16.579-1.951,23.889-5.256
		C274.396,284.706,284.706,274.404,290.524,261.564z"/>
</g>
</svg>