<svg xmlns="http://www.w3.org/2000/svg" aria-hidden="true"
  style="position:absolute;width:0;height:0;overflow:hidden">
  <defs>
    <symbol id="icon-unreal-engine" viewBox="0 0 48 32">
      <path
        d="M32.139 23.932v-1.851h-.7v2.398h2.349v-.547zM23.6 26.121h.523c.013.138-.028.208-.14.218s-.224.02-.336.02c-.466.001-.516-.053-.488-.519l.002-.026c.017-.174.081-.239.256-.247.134-.006.269-.002.403-.003.14-.001.273.009.307.173h.344c.048-.275-.042-.425-.306-.44a8.952 8.952 0 0 0-1.023.002c-.229.013-.346.148-.36.372-.012.194-.011.39 0 .584.012.207.108.311.311.362.075.019.151.034.226.05h.677l.163-.035c.146-.029.29-.076.319-.242.029-.163.028-.332.04-.508H23.6zm-2.692-1.652v-2.38h-.688v1.818l-1.413-1.829h-1.078v2.394h.685v-1.78l.032-.008 1.397 1.785zm1.239-1.189v-.686h.938l.13.002c.385.003.426.115.387.494-.013.123-.106.185-.216.187-.41.007-.82.003-1.239.003zm1.47.87c.009.106.014.212.021.32h.687c0-.15.006-.288-.001-.426-.015-.302-.06-.436-.354-.487-.015-.003-.029-.016-.065-.037.296-.066.402-.266.416-.526a2.023 2.023 0 0 0-.013-.389c-.042-.311-.156-.434-.463-.492a2.551 2.551 0 0 0-.463-.045h-.001c-.594-.005-1.189-.002-1.783-.002-.046 0-.093.006-.147.009v2.393h.691v-.66c.157 0 .3-.003.442.001.251.006.504.002.753.029.204.022.262.105.28.311zm1.904-.644h1.791v-.483h-1.794v-.432h1.897v-.508h-2.599v2.389h2.631v-.526h-1.926zM17.21 22.15c0-.024-.015-.048-.022-.071h-.686c0 .424.001.836-.001 1.248a3.462 3.462 0 0 1-.02.337c-.017.16-.119.261-.271.269a8.311 8.311 0 0 1-.947.007c-.253-.017-.335-.13-.338-.388-.005-.443-.003-.885-.005-1.328 0-.049-.01-.099-.015-.148h-.685c0 .595-.021 1.172.007 1.748.019.4.185.557.588.625a5.635 5.635 0 0 0 1.763.007c.447-.067.599-.233.619-.679.024-.541.012-1.085.014-1.627zm11.666 1.39.508-.999.514.999zm.073-1.466-1.302 2.399h.752l.217-.414h1.545l.218.413h.76l-1.309-2.398zm-6.9 4.202-.032.008C-1.321-4.728-1.579-5.058-1.836-5.388l23.072 30.664h-.609v1.352h.376v-.987l.038-.014.789 1.002h.609v-1.351h-.388zm4.897.001-.031.008-.768-.991h-.607v1.331h.385v-1.021l.804 1.027h.599v-1.333h-.383zm-7.69-.19h1.02v-.279h-1.02v-.251h1.076v-.282h-1.465v1.352h1.492v-.288h-1.104zm8.827 0h1.002v-.272h-.998v-.251h1.057v-.268H27.69v1.331h1.478v-.285h-1.084zm-3.263.543h.372v-1.333h-.372zm-6.071-12.696s-.273-1.354 1.169-2.994c1.441-1.64 2.523-2.236 3.691-2.547l-.002.001.004-.001s-.917.534-.917 1.342c0 .234.037.395.089.503.069.143.177.192.275.192.082 0 .13-.033.235-.074v4.373s.011.07.075.154a.6.6 0 0 0 .504.268c.459-.003 1.037-.522 1.037-.522v-3.541c0-.36-.258-.795-.531-.944 0 0 .037-.002.098-.002.18 0 .567.021.783.185.06-.069 1.027-1.163 2.747-1.5l-.001.001.005-.001s-.951 1.12-1.25 1.676c-.053.003-.061 1.054-.052 2.104.009 1.014.033 2.027.047 2.097 0 0 .102.151.36.152.292.002.783-.187 1.553-.997s-.02.046-.061.128c-.221.441-1.041 1.92-2.498 2.779l-.969-.819-1.031 1.093h-.002s-2.35-.199-3.331-1.615l.005.002-.001-.002s.149.058.316.061c.197.004.403-.068.403-.397v-3.33a.353.353 0 0 0-.374-.36c-.231.001-.563.156-1.016.621-.957.981-1.354 1.913-1.354 1.913l-.001-.004-.002.004zm5.22 5.645c1.833 0 3.556-.714 4.853-2.01s2.01-3.02 2.01-4.853c0-1.833-.714-3.556-2.01-4.853s-3.02-2.01-4.853-2.01c-1.833 0-3.556.714-4.853 2.01s-2.01 3.02-2.01 4.853c0 1.833.714 3.556 2.01 4.853s3.02 2.01 4.853 2.01z" />
      <path
        d="M23.969 5.537a7.179 7.179 0 1 1 0 14.358 7.179 7.179 0 0 1 0-14.358zm0 14.562c1.972 0 3.826-.768 5.22-2.162s2.162-3.248 2.162-5.22-.768-3.826-2.162-5.22c-1.394-1.394-3.248-2.162-5.22-2.162s-3.826.768-5.22 2.162-2.162 3.248-2.162 5.22c0 1.972.768 3.826 2.162 5.22s3.248 2.162 5.22 2.162z" />
    </symbol>
    <symbol id="icon-cryengine" viewBox="0 0 32 32">
      <path
        d="M19.619 19.833c.395 0 .773.136 1.076.384l.019.016-.199.317a1.328 1.328 0 1 0-.895 2.307c.663 0 1.213-.488 1.311-1.123l.003-.019h-1.136l.231-.369h1.288v.185c0 .936-.761 1.697-1.696 1.697a1.698 1.698 0 0 1-.001-3.396zm-17.923 0a1.7 1.7 0 0 1 1.224.523l.016.017-.209.323a1.328 1.328 0 1 0-1.032 2.161c.383 0 .745-.164.997-.452l.013-.016.281.24A1.698 1.698 0 0 1-.001 21.53c0-.935.761-1.696 1.696-1.696zm3.253.02c.852 0 1.192.4 1.192.977 0 .484-.245.825-.828.941l-.019.004.936 1.433h-.448l-.884-1.411h-.637v1.411h-.364v-3.356h1.052zm7.84 3.031v.325h-2.296v-.325h2.296zm-5.357-3.031.921 1.532a.616.616 0 0 1 .06.153c.013-.039.025-.089.057-.145l.008-.013.917-1.527h.396L7.706 23.21h-.361l.863-1.4-1.176-1.957h.4zm23.363 3.031v.325h-2.296v-.325h2.296zm-6.082-3.031 2.016 2.78c-.017-.079-.027-.108-.028-.169v-2.611h.363v3.357h-.344l-2.02-2.789c.013.044.031.104.032.189v2.6h-.363v-3.357h.344zm-1.814 0v3.357h-.363v-3.357h.363zm-8.527 0 2.016 2.78c-.017-.079-.027-.108-.028-.169v-2.611h.363v3.357h-.344l-2.02-2.789c.013.044.031.104.032.189v2.6h-.363v-3.357h.344zm16.423 1.42v.331h-2.296v-.331h2.296zm-18.006 0v.331h-2.296v-.331h2.296zm-7.834-1.094h-.693v1.289h.689c.512 0 .82-.149.82-.637-.001-.489-.309-.652-.816-.652zm26.654-.756a.39.39 0 1 1 0 .778.39.39 0 1 1 0-.778zm-.814.43v.325h-2.296v-.325h2.296zm-18.006 0v.325h-1.96l.201-.325h1.759zm18.82-.365a.322.322 0 1 0 0 .646.323.323 0 1 0 0-.646zm.003.121c.1 0 .144.051.144.121 0 .053-.024.093-.079.112l-.008.003.107.164h-.077l-.089-.139c-.003-.003-.004-.009-.005-.015v-.004h-.077v.157h-.064v-.401h.149zm.001.062h-.087v.121h.085c.055 0 .08-.015.08-.06 0-.044-.025-.061-.079-.061zM14.545 8.8l.117-.009c-3.147.732-5.015 3.109-5.015 3.419v.001c0 .001.001-.012.003.048v.008h.001c.064.337.993 1.967 4.588 2.935-4.12-.327-5.992-2.331-6.084-2.917l-.001-.019h-.001c0-.061-.001-.049-.001-.045l.001-.017c.049-.603 2.571-3.083 6.392-3.403zm1.308-.025c4.279.223 6.768 2.767 6.791 3.479v-.001l-.001.044v.008h-.003c-.033.357-1.393 1.811-3.428 2.48-2.487.817-6.488.52-6.488-2.597a2.66 2.66 0 0 1 5.319.007 2.79 2.79 0 0 1-.775 1.892c.436-.008 2.023-.124 3.517-1.356.165-.161.271-.296.315-.379a.191.191 0 0 0 .027-.096c.001-.32-1.717-2.779-5.273-3.48zm-.476 1.902a1.508 1.508 0 1 0 0 3.016 1.508 1.508 0 0 0 0-3.016zm7.266 1.576z" />
    </symbol>
    <symbol id="icon-unity" viewBox="0 0 32 32">
      <path
        d="m28.212 16.133 1.805-3.058a.638.638 0 0 0 .027-.485L26.469 2.35a.642.642 0 0 0-.755-.413l-10.508 2.56a.646.646 0 0 0-.443.385L13.646 7.68h-3.408a.642.642 0 0 0-.47.205l-7.68 8.32a.64.64 0 0 0 .027.898l8.055 7.68a.629.629 0 0 0 .44.177h3.672l1.12 2.797a.638.638 0 0 0 .485.392l11.175 1.92a.639.639 0 0 0 .733-.493l2.267-10.387a.633.633 0 0 0-.08-.47zM13.648 7.68l9.02-1.652-4.747 9.332H7.148zm.639 17.28-7.14-7.04H17.92l5.6 8.428zm11.561-.065-5.367-8.255 4.692-9.332 3.04 8.828z" />
    </symbol>
    <symbol id="icon-facebook" viewBox="0 0 32 32">
      <path
        d="M21.331 5.313h2.921V.225C23.748.156 22.015 0 19.996 0c-4.212 0-7.097 2.649-7.097 7.519V12H8.251v5.688h4.648V32h5.699V17.689h4.46l.708-5.688h-5.169V8.082c.001-1.644.444-2.769 2.735-2.769z" />
    </symbol>
    <symbol id="icon-instagram" viewBox="0 0 32 32">
      <path
        d="M23.34 0H8.664C3.888 0 .002 3.886.002 8.662v14.676C.002 28.114 3.888 32 8.664 32H23.34c4.776 0 8.662-3.886 8.662-8.662V8.662C32.002 3.886 28.116 0 23.34 0zm6.786 23.338a6.793 6.793 0 0 1-6.786 6.786H8.664a6.793 6.793 0 0 1-6.786-6.786V8.662a6.793 6.793 0 0 1 6.786-6.786H23.34a6.793 6.793 0 0 1 6.786 6.786v14.676z" />
      <path
        d="M16.002 7.25c-4.825 0-8.75 3.925-8.75 8.75s3.925 8.75 8.75 8.75 8.75-3.925 8.75-8.75-3.925-8.75-8.75-8.75zm0 15.623c-3.79 0-6.874-3.084-6.874-6.874s3.084-6.874 6.874-6.874c3.79 0 6.874 3.084 6.874 6.874s-3.083 6.874-6.874 6.874zM24.96 4.143c-1.426 0-2.585 1.16-2.585 2.585s1.16 2.586 2.585 2.586c1.426 0 2.586-1.16 2.586-2.586s-1.16-2.585-2.586-2.585zm0 3.295a.71.71 0 1 1 .001-1.42.71.71 0 0 1-.001 1.42z" />
    </symbol>
    <symbol id="icon-linkedin" viewBox="0 0 32 32">
      <path
        d="M31.994 32v-.001h.008V20.263c0-5.741-1.236-10.164-7.948-10.164-3.227 0-5.392 1.771-6.276 3.449h-.093v-2.913h-6.364v21.364h6.627V21.42c0-2.785.528-5.479 3.977-5.479 3.399 0 3.449 3.179 3.449 5.657v10.401h6.62zM.53 10.636h6.635V32H.53V10.636zM3.845 0C1.724 0 .002 1.721.002 3.843s1.721 3.879 3.843 3.879c2.121 0 3.843-1.757 3.843-3.879A3.846 3.846 0 0 0 3.845 0z" />
    </symbol>
    <symbol id="icon-twitter" viewBox="0 0 32 32">
      <path
        d="M32.002 6.078c-1.19.522-2.458.868-3.78 1.036a6.523 6.523 0 0 0 2.886-3.626 13.11 13.11 0 0 1-4.16 1.588A6.574 6.574 0 0 0 22.156 3C18.524 3 15.6 5.948 15.6 9.562c0 .52.044 1.02.152 1.496-5.454-.266-10.28-2.88-13.522-6.862a6.605 6.605 0 0 0-.898 3.316 6.57 6.57 0 0 0 2.914 5.452 6.479 6.479 0 0 1-2.964-.808v.072c0 3.188 2.274 5.836 5.256 6.446a6.548 6.548 0 0 1-1.72.216 5.8 5.8 0 0 1-1.242-.112c.85 2.598 3.262 4.508 6.13 4.57a13.182 13.182 0 0 1-8.134 2.798c-.538 0-1.054-.024-1.57-.09A18.469 18.469 0 0 0 10.066 29c12.072 0 18.672-10 18.672-18.668 0-.29-.01-.57-.024-.848a13.087 13.087 0 0 0 3.288-3.406z" />
    </symbol>
    <symbol id="icon-arrow" viewBox="0 0 37 32">
      <path
        d="M2.244 19.509c.153.025.307.036.462.034h26.338l-.574.267a5.352 5.352 0 0 0-1.509 1.068l-7.386 7.386a2.764 2.764 0 0 0-.387 3.539 2.67 2.67 0 0 0 4.006.347L36.55 18.794a2.671 2.671 0 0 0 .002-3.778l-.002-.002L23.194 1.658a2.672 2.672 0 0 0-4.007.267 2.765 2.765 0 0 0 .387 3.539l7.372 7.399c.392.392.843.721 1.336.975l.801.361H2.852a2.764 2.764 0 0 0-2.818 2.244 2.671 2.671 0 0 0 2.209 3.064z" />
    </symbol>
    <symbol id="icon-cube" viewBox="0 0 34 32">
      <path
        d="m33.442 28.213-.706-2.634a.641.641 0 1 0-1.241.333l.309 1.153-4.51-2.572V13.802a.642.642 0 0 0-.322-.557l-9.318-5.357V2.797l.831.831a.643.643 0 0 0 .909-.909L17.466.791a.646.646 0 0 0-.909 0l-1.928 1.928a.643.643 0 0 0 .909.909l.831-.831v5.092l-9.255 5.357a.642.642 0 0 0-.321.556V24.39L2.22 26.989l.309-1.155a.643.643 0 0 0-1.241-.333l-.706 2.634a.647.647 0 0 0 .474.792l2.615.701a.642.642 0 1 0 .333-1.241l-1.115-.299 4.539-2.579 9.3 5.476a.643.643 0 0 0 .647.003l2.358-1.359a.643.643 0 1 0-.642-1.114l-2.033 1.172-8.34-4.911 8.256-4.691 8.415 4.8-1.287.742a.643.643 0 1 0 .642 1.114l1.939-1.118 4.459 2.544-1.117.299a.642.642 0 1 0 .333 1.241l2.576-.69a.647.647 0 0 0 .512-.803zm-7.433-4.454-8.355-4.766V9.369l8.355 4.803v9.586zM8.078 14.172l8.291-4.799v9.574l-8.291 4.711v-9.486z" />
      <path d="M21.896 28.237a.643.643 0 1 0 0-1.286.643.643 0 0 0 0 1.286z" />
    </symbol>
    <symbol id="icon-tablet" viewBox="0 0 36 32">
      <path
        d="M31.702.19H4.674A4.119 4.119 0 0 0 .561 4.303v23.503a4.118 4.118 0 0 0 4.113 4.113h27.028a4.119 4.119 0 0 0 4.113-4.113V4.303A4.118 4.118 0 0 0 31.702.19zm2.937 27.616a2.941 2.941 0 0 1-2.938 2.938H4.673a2.941 2.941 0 0 1-2.938-2.938V4.303a2.941 2.941 0 0 1 2.938-2.938h27.028a2.941 2.941 0 0 1 2.938 2.938v23.503z" />
      <path
        d="M31.702 4.89H4.674c-.974 0-1.763.789-1.763 1.763v21.152c0 .974.789 1.763 1.763 1.763h27.028c.974 0 1.763-.789 1.763-1.763V6.653c0-.974-.789-1.763-1.763-1.763zM18.188 16.562l-6.399-3.445 6.399-3.446 6.399 3.446-6.399 3.445zm7.05-2.462v6.89l-6.463 3.482v-6.89l6.463-3.482zM17.6 17.582v6.89l-6.463-3.482V14.1l6.463 3.482zM4.086 6.653c0-.325.263-.588.588-.588h12.927V8.65l-7.329 3.948c-.008.004-.016.006-.024.011a.587.587 0 0 0-.285.507v4.925l-5.876 2.938V6.653zm28.203 21.153a.588.588 0 0 1-.588.588H4.673a.588.588 0 0 1-.588-.588v-5.513l5.876-2.938v1.987c0 .216.119.415.309.517l7.638 4.113a.585.585 0 0 0 .557 0l7.638-4.113a.587.587 0 0 0 .309-.517v-1.987l5.876 2.938v5.513zm0-6.827-5.876-2.938v-4.925a.587.587 0 0 0-.286-.504c-.008-.005-.016-.006-.024-.011L18.775 8.65V6.065h12.927c.324 0 .588.263.588.588v14.326zM4.086 3.715a.588.588 0 1 0 0-1.177.588.588 0 0 0 0 1.177zM6.436 3.715a.588.588 0 1 0 0-1.175.588.588 0 0 0 0 1.175zM8.786 3.715a.588.588 0 1 0 0-1.175.588.588 0 0 0 0 1.175zM23.476 3.715h8.226a.588.588 0 1 0 0-1.176h-8.226a.588.588 0 1 0 0 1.176z" />
    </symbol>
    <symbol id="icon-vr" viewBox="0 0 28 32">
      <path
        d="M16.567 23.905a8.33 8.33 0 0 1-5.237 0 .904.904 0 0 0-.571 1.715c1.03.343 2.111.514 3.191.514s2.161-.171 3.188-.514a.904.904 0 0 0-.572-1.714z" />
      <path
        d="M24.477 6.531a5.739 5.739 0 0 0-5.688-4.936h-1.032v-.064a.904.904 0 0 0-.904-.904h-5.808a.904.904 0 0 0-.904.904v.064H9.109c-2.909 0-5.282 2.147-5.685 4.936a3.814 3.814 0 0 0-2.963 3.712v7.744c0 2.477 2.017 3.486 2.934 3.704.414 5.575 5.095 9.784 10.554 9.784 5.567 0 10.143-4.32 10.554-9.784 2.375-.564 2.934-2.719 2.934-3.704v-7.744a3.812 3.812 0 0 0-2.96-3.711zm-6.72-3.128h1.032c2.557 0 3.613 2.091 3.833 3.033h-4.865V3.403zm-5.808-.968h4v4.001h-4V2.435zm-2.84.968h1.032v3.033H5.279c.586-2.455 2.811-3.033 3.829-3.033zm4.84 26.264c-4.46 0-8.273-3.379-8.73-7.872h4.457a4.235 4.235 0 0 0 2.977-1.233l.014-.014c.34-.332.806-.523 1.283-.523s.943.19 1.283.523l.014.014a4.235 4.235 0 0 0 2.977 1.233h4.456c-.454 4.416-4.196 7.872-8.73 7.872zm11.68-11.68c0 1.119-.912 2-2 2h-5.406a2.417 2.417 0 0 1-1.684-.689l-.015-.015c-.678-.677-1.616-1.066-2.575-1.066s-1.898.389-2.575 1.066l-.015.015a2.417 2.417 0 0 1-1.684.689H4.269c-1.085 0-2-.878-2-2v-7.744c0-1.103.897-2 2-2h19.36c1.103 0 2 .897 2 2v7.744z" />
    </symbol>
    <symbol id="icon-ps4" viewBox="0 0 32 32">
      <path
        d="M6.725 11.393H.177v1.859h6.548a.93.93 0 0 1 0 1.86h-3.76a2.792 2.792 0 0 0-2.789 2.789v2.789h1.859v-2.789a.93.93 0 0 1 .93-.93h3.76c1.538 0 2.789-1.251 2.789-2.789s-1.251-2.789-2.789-2.789zM16.505 11.393a2.792 2.792 0 0 0-2.789 2.789V17.9a.93.93 0 0 1-.93.93H8.582v1.859h4.204a2.792 2.792 0 0 0 2.789-2.789v-3.718a.93.93 0 0 1 .93-.93h4.204v-1.859h-4.204zM30.046 16.97v-3.718a1.861 1.861 0 0 0-2.851-1.572l-5.887 3.718a1.85 1.85 0 0 0-.867 1.572c0 1.025.834 1.859 1.859 1.859h5.887v1.859h1.859v-1.859h1.859V16.97h-1.859zm-1.859 0h-5.886l5.886-3.718v3.718z" />
    </symbol>
    <symbol id="icon-pc" viewBox="0 0 32 32">
      <path
        d="M3.091 12.902a.517.517 0 0 0 .367-.15l2.065-2.065a.52.52 0 0 0-.733-.733l-2.065 2.065a.516.516 0 0 0 .367.884zM3.091 16a.517.517 0 0 0 .367-.15l5.163-5.164a.52.52 0 0 0-.733-.733l-5.163 5.163a.516.516 0 0 0 .367.884z" />
      <path
        d="M29.941.509H16.516c-.856 0-1.549.694-1.549 1.549v5.68H3.091A2.582 2.582 0 0 0 .509 10.32v13.425a2.582 2.582 0 0 0 2.582 2.582h5.68v2.065H7.222a1.549 1.549 0 1 0 0 3.098h22.719a1.55 1.55 0 0 0 1.549-1.549V2.058c0-.856-.694-1.549-1.549-1.549zM3.091 8.771H21.68c.856 0 1.549.694 1.549 1.549v12.392H1.542V10.32c0-.856.694-1.549 1.549-1.549zM1.542 23.745h21.687a1.55 1.55 0 0 1-1.549 1.549H3.091a1.549 1.549 0 0 1-1.549-1.549zm8.262 2.582h5.164v2.065H9.804v-2.065zm6.712 4.131H7.222a.516.516 0 1 1 0-1.032h10.327a.516.516 0 1 1 0 1.032h-1.033zm13.942-.517a.516.516 0 0 1-.516.516H19.006a1.546 1.546 0 0 0-1.456-2.065h-1.549v-2.065h5.68a2.582 2.582 0 0 0 2.582-2.582V10.32a2.582 2.582 0 0 0-2.582-2.582h-5.68v-5.68c0-.285.231-.516.516-.516h13.425c.285 0 .516.231.516.516v27.883z" />
      <path
        d="M28.392 3.091H18.065c-.57 0-1.033.462-1.033 1.033v1.033c0 .57.462 1.033 1.033 1.033h10.327c.57 0 1.033-.462 1.033-1.033V4.124c0-.57-.462-1.033-1.033-1.033zM18.065 5.157V4.124h10.327v1.033H18.065zM27.36 10.836a1.549 1.549 0 1 0 0-3.098 1.549 1.549 0 0 0 0 3.098zm0-2.065a.516.516 0 1 1 0 1.032.516.516 0 0 1 0-1.032zM28.909 13.418a1.549 1.549 0 1 0-3.098 0 1.549 1.549 0 0 0 3.098 0zm-1.549.517a.516.516 0 1 1 0-1.032.516.516 0 0 1 0 1.032zM20.647 27.36a.516.516 0 0 0-.516.516v1.033a.516.516 0 1 0 1.032 0v-1.033a.516.516 0 0 0-.516-.516zM22.713 27.36a.516.516 0 0 0-.516.516v1.033a.516.516 0 1 0 1.032 0v-1.033a.516.516 0 0 0-.516-.516zM24.778 27.36a.516.516 0 0 0-.516.516v1.033a.516.516 0 1 0 1.032 0v-1.033a.516.516 0 0 0-.516-.516zM26.843 27.36a.516.516 0 0 0-.516.516v1.033a.516.516 0 1 0 1.032 0v-1.033a.516.516 0 0 0-.516-.516zM28.909 27.36a.516.516 0 0 0-.516.516v1.033a.516.516 0 1 0 1.032 0v-1.033a.516.516 0 0 0-.516-.516z" />
    </symbol>
    <symbol id="icon-phone" viewBox="0 0 32 32">
      <path
        d="M22.446.647H9.555a2.257 2.257 0 0 0-2.254 2.254v26.196a2.258 2.258 0 0 0 2.254 2.255h12.891a2.258 2.258 0 0 0 2.255-2.254V2.901A2.257 2.257 0 0 0 22.447.647zM8.324 4.741h15.353v19.447H8.324V4.741zm1.23-3.07h12.891c.679 0 1.231.552 1.231 1.231v.816H8.323v-.816c0-.679.552-1.231 1.231-1.231zm12.892 28.658H9.555a1.232 1.232 0 0 1-1.231-1.231v-3.887h15.353v3.887c0 .679-.552 1.231-1.231 1.231z" />
      <path
        d="M16 25.723c-1.129 0-2.047.918-2.047 2.047s.918 2.047 2.047 2.047 2.047-.918 2.047-2.047-.918-2.047-2.047-2.047zm0 3.071a1.024 1.024 0 0 1 0-2.047 1.024 1.024 0 0 1 0 2.047zM13.953 3.206H16a.512.512 0 1 0 0-1.024h-2.047a.512.512 0 1 0 0 1.024zM17.535 3.206h.512a.512.512 0 1 0 0-1.024h-.512a.512.512 0 1 0 0 1.024zM29.619 2.986a.512.512 0 1 0-.724.724 4.91 4.91 0 0 1 0 6.935.512.512 0 1 0 .724.724 5.935 5.935 0 0 0 0-8.383z" />
      <path
        d="M27.464 4.15a.512.512 0 1 0-.724.724c.633.633.981 1.476.981 2.374s-.349 1.74-.981 2.374a.512.512 0 1 0 .724.724c.826-.826 1.281-1.926 1.281-3.097s-.454-2.272-1.281-3.098zM3.105 3.709a.512.512 0 1 0-.724-.724 5.935 5.935 0 0 0 0 8.383.51.51 0 0 0 .724 0c.2-.2.2-.523 0-.724a4.91 4.91 0 0 1 0-6.935z" />
      <path
        d="M5.26 4.009c-.2-.2-.524-.2-.724 0-.827.826-1.281 1.926-1.281 3.097s.455 2.271 1.281 3.098a.51.51 0 0 0 .724 0c.2-.2.2-.524 0-.724-.633-.633-.982-1.476-.982-2.374s.348-1.74.982-2.374c.2-.2.2-.524 0-.724z" />
    </symbol>
    <symbol id="icon-fire" viewBox="0 0 32 32">
      <path
        d="M27.932 18.736c-.367-4.772-2.589-7.763-4.549-10.402C21.568 5.891 20 3.781 20 .669a.668.668 0 0 0-1.055-.542c-2.944 2.107-5.4 5.657-6.258 9.045-.596 2.359-.675 5.01-.686 6.761-2.719-.581-3.335-4.647-3.341-4.692a.67.67 0 0 0-.347-.495.663.663 0 0 0-.604-.011c-.143.069-3.499 1.775-3.695 8.585-.014.227-.014.454-.014.681C4 26.617 9.383 32 16 32a.082.082 0 0 0 .027 0h.008C22.635 31.981 28 26.605 28 20.001c0-.333-.068-1.264-.068-1.264zM16 30.666c-2.206 0-4-1.911-4-4.261 0-.08-.001-.161.005-.26.027-.991.215-1.667.421-2.117.387.831 1.078 1.594 2.201 1.594a.667.667 0 0 0 .667-.667c0-.949.02-2.044.256-3.032.21-.876.713-1.808 1.35-2.556.283.97.835 1.755 1.374 2.521.771 1.096 1.569 2.23 1.709 4.162.008.115.017.23.017.354 0 2.349-1.794 4.261-4 4.261z" />
    </symbol>
    <symbol id="icon-dots" viewBox="0 0 41 32">
      <path
        d="M1.455 0.727c0 0.402-0.326 0.727-0.727 0.727s-0.727-0.326-0.727-0.727c0-0.402 0.326-0.727 0.727-0.727s0.727 0.326 0.727 0.727z"></path>
      <path
        d="M5.818 0.727c0 0.402-0.326 0.727-0.727 0.727s-0.727-0.326-0.727-0.727c0-0.402 0.326-0.727 0.727-0.727s0.727 0.326 0.727 0.727z"></path>
      <path
        d="M10.182 0.727c0 0.402-0.326 0.727-0.727 0.727s-0.727-0.326-0.727-0.727c0-0.402 0.326-0.727 0.727-0.727s0.727 0.326 0.727 0.727z"></path>
      <path
        d="M14.545 0.727c0 0.402-0.326 0.727-0.727 0.727s-0.727-0.326-0.727-0.727c0-0.402 0.326-0.727 0.727-0.727s0.727 0.326 0.727 0.727z"></path>
      <path
        d="M18.909 0.727c0 0.402-0.326 0.727-0.727 0.727s-0.727-0.326-0.727-0.727c0-0.402 0.326-0.727 0.727-0.727s0.727 0.326 0.727 0.727z"></path>
      <path
        d="M23.273 0.727c0 0.402-0.326 0.727-0.727 0.727s-0.727-0.326-0.727-0.727c0-0.402 0.326-0.727 0.727-0.727s0.727 0.326 0.727 0.727z"></path>
      <path
        d="M27.636 0.727c0 0.402-0.326 0.727-0.727 0.727s-0.727-0.326-0.727-0.727c0-0.402 0.326-0.727 0.727-0.727s0.727 0.326 0.727 0.727z"></path>
      <path
        d="M32 0.727c0 0.402-0.326 0.727-0.727 0.727s-0.727-0.326-0.727-0.727c0-0.402 0.326-0.727 0.727-0.727s0.727 0.326 0.727 0.727z"></path>
      <path
        d="M36.364 0.727c0 0.402-0.326 0.727-0.727 0.727s-0.727-0.326-0.727-0.727c0-0.402 0.326-0.727 0.727-0.727s0.727 0.326 0.727 0.727z"></path>
      <path
        d="M40.727 0.727c0 0.402-0.326 0.727-0.727 0.727s-0.727-0.326-0.727-0.727c0-0.402 0.326-0.727 0.727-0.727s0.727 0.326 0.727 0.727z"></path>
      <path
        d="M1.455 5.091c0 0.402-0.326 0.727-0.727 0.727s-0.727-0.326-0.727-0.727c0-0.402 0.326-0.727 0.727-0.727s0.727 0.326 0.727 0.727z"></path>
      <path
        d="M5.818 5.091c0 0.402-0.326 0.727-0.727 0.727s-0.727-0.326-0.727-0.727c0-0.402 0.326-0.727 0.727-0.727s0.727 0.326 0.727 0.727z"></path>
      <path
        d="M10.182 5.091c0 0.402-0.326 0.727-0.727 0.727s-0.727-0.326-0.727-0.727c0-0.402 0.326-0.727 0.727-0.727s0.727 0.326 0.727 0.727z"></path>
      <path
        d="M14.545 5.091c0 0.402-0.326 0.727-0.727 0.727s-0.727-0.326-0.727-0.727c0-0.402 0.326-0.727 0.727-0.727s0.727 0.326 0.727 0.727z"></path>
      <path
        d="M18.909 5.091c0 0.402-0.326 0.727-0.727 0.727s-0.727-0.326-0.727-0.727c0-0.402 0.326-0.727 0.727-0.727s0.727 0.326 0.727 0.727z"></path>
      <path
        d="M23.273 5.091c0 0.402-0.326 0.727-0.727 0.727s-0.727-0.326-0.727-0.727c0-0.402 0.326-0.727 0.727-0.727s0.727 0.326 0.727 0.727z"></path>
      <path
        d="M27.636 5.091c0 0.402-0.326 0.727-0.727 0.727s-0.727-0.326-0.727-0.727c0-0.402 0.326-0.727 0.727-0.727s0.727 0.326 0.727 0.727z"></path>
      <path
        d="M32 5.091c0 0.402-0.326 0.727-0.727 0.727s-0.727-0.326-0.727-0.727c0-0.402 0.326-0.727 0.727-0.727s0.727 0.326 0.727 0.727z"></path>
      <path
        d="M36.364 5.091c0 0.402-0.326 0.727-0.727 0.727s-0.727-0.326-0.727-0.727c0-0.402 0.326-0.727 0.727-0.727s0.727 0.326 0.727 0.727z"></path>
      <path
        d="M40.727 5.091c0 0.402-0.326 0.727-0.727 0.727s-0.727-0.326-0.727-0.727c0-0.402 0.326-0.727 0.727-0.727s0.727 0.326 0.727 0.727z"></path>
      <path
        d="M1.455 9.455c0 0.402-0.326 0.727-0.727 0.727s-0.727-0.326-0.727-0.727c0-0.402 0.326-0.727 0.727-0.727s0.727 0.326 0.727 0.727z"></path>
      <path
        d="M5.818 9.455c0 0.402-0.326 0.727-0.727 0.727s-0.727-0.326-0.727-0.727c0-0.402 0.326-0.727 0.727-0.727s0.727 0.326 0.727 0.727z"></path>
      <path
        d="M10.182 9.455c0 0.402-0.326 0.727-0.727 0.727s-0.727-0.326-0.727-0.727c0-0.402 0.326-0.727 0.727-0.727s0.727 0.326 0.727 0.727z"></path>
      <path
        d="M14.545 9.455c0 0.402-0.326 0.727-0.727 0.727s-0.727-0.326-0.727-0.727c0-0.402 0.326-0.727 0.727-0.727s0.727 0.326 0.727 0.727z"></path>
      <path
        d="M18.909 9.455c0 0.402-0.326 0.727-0.727 0.727s-0.727-0.326-0.727-0.727c0-0.402 0.326-0.727 0.727-0.727s0.727 0.326 0.727 0.727z"></path>
      <path
        d="M23.273 9.455c0 0.402-0.326 0.727-0.727 0.727s-0.727-0.326-0.727-0.727c0-0.402 0.326-0.727 0.727-0.727s0.727 0.326 0.727 0.727z"></path>
      <path
        d="M27.636 9.455c0 0.402-0.326 0.727-0.727 0.727s-0.727-0.326-0.727-0.727c0-0.402 0.326-0.727 0.727-0.727s0.727 0.326 0.727 0.727z"></path>
      <path
        d="M32 9.455c0 0.402-0.326 0.727-0.727 0.727s-0.727-0.326-0.727-0.727c0-0.402 0.326-0.727 0.727-0.727s0.727 0.326 0.727 0.727z"></path>
      <path
        d="M36.364 9.455c0 0.402-0.326 0.727-0.727 0.727s-0.727-0.326-0.727-0.727c0-0.402 0.326-0.727 0.727-0.727s0.727 0.326 0.727 0.727z"></path>
      <path
        d="M40.727 9.455c0 0.402-0.326 0.727-0.727 0.727s-0.727-0.326-0.727-0.727c0-0.402 0.326-0.727 0.727-0.727s0.727 0.326 0.727 0.727z"></path>
      <path
        d="M1.455 13.818c0 0.402-0.326 0.727-0.727 0.727s-0.727-0.326-0.727-0.727c0-0.402 0.326-0.727 0.727-0.727s0.727 0.326 0.727 0.727z"></path>
      <path
        d="M5.818 13.818c0 0.402-0.326 0.727-0.727 0.727s-0.727-0.326-0.727-0.727c0-0.402 0.326-0.727 0.727-0.727s0.727 0.326 0.727 0.727z"></path>
      <path
        d="M10.182 13.818c0 0.402-0.326 0.727-0.727 0.727s-0.727-0.326-0.727-0.727c0-0.402 0.326-0.727 0.727-0.727s0.727 0.326 0.727 0.727z"></path>
      <path
        d="M14.545 13.818c0 0.402-0.326 0.727-0.727 0.727s-0.727-0.326-0.727-0.727c0-0.402 0.326-0.727 0.727-0.727s0.727 0.326 0.727 0.727z"></path>
      <path
        d="M18.909 13.818c0 0.402-0.326 0.727-0.727 0.727s-0.727-0.326-0.727-0.727c0-0.402 0.326-0.727 0.727-0.727s0.727 0.326 0.727 0.727z"></path>
      <path
        d="M23.273 13.818c0 0.402-0.326 0.727-0.727 0.727s-0.727-0.326-0.727-0.727c0-0.402 0.326-0.727 0.727-0.727s0.727 0.326 0.727 0.727z"></path>
      <path
        d="M27.636 13.818c0 0.402-0.326 0.727-0.727 0.727s-0.727-0.326-0.727-0.727c0-0.402 0.326-0.727 0.727-0.727s0.727 0.326 0.727 0.727z"></path>
      <path
        d="M32 13.818c0 0.402-0.326 0.727-0.727 0.727s-0.727-0.326-0.727-0.727c0-0.402 0.326-0.727 0.727-0.727s0.727 0.326 0.727 0.727z"></path>
      <path
        d="M36.364 13.818c0 0.402-0.326 0.727-0.727 0.727s-0.727-0.326-0.727-0.727c0-0.402 0.326-0.727 0.727-0.727s0.727 0.326 0.727 0.727z"></path>
      <path
        d="M40.727 13.818c0 0.402-0.326 0.727-0.727 0.727s-0.727-0.326-0.727-0.727c0-0.402 0.326-0.727 0.727-0.727s0.727 0.326 0.727 0.727z"></path>
      <path
        d="M1.455 18.182c0 0.402-0.326 0.727-0.727 0.727s-0.727-0.326-0.727-0.727c0-0.402 0.326-0.727 0.727-0.727s0.727 0.326 0.727 0.727z"></path>
      <path
        d="M5.818 18.182c0 0.402-0.326 0.727-0.727 0.727s-0.727-0.326-0.727-0.727c0-0.402 0.326-0.727 0.727-0.727s0.727 0.326 0.727 0.727z"></path>
      <path
        d="M10.182 18.182c0 0.402-0.326 0.727-0.727 0.727s-0.727-0.326-0.727-0.727c0-0.402 0.326-0.727 0.727-0.727s0.727 0.326 0.727 0.727z"></path>
      <path
        d="M14.545 18.182c0 0.402-0.326 0.727-0.727 0.727s-0.727-0.326-0.727-0.727c0-0.402 0.326-0.727 0.727-0.727s0.727 0.326 0.727 0.727z"></path>
      <path
        d="M18.909 18.182c0 0.402-0.326 0.727-0.727 0.727s-0.727-0.326-0.727-0.727c0-0.402 0.326-0.727 0.727-0.727s0.727 0.326 0.727 0.727z"></path>
      <path
        d="M23.273 18.182c0 0.402-0.326 0.727-0.727 0.727s-0.727-0.326-0.727-0.727c0-0.402 0.326-0.727 0.727-0.727s0.727 0.326 0.727 0.727z"></path>
      <path
        d="M27.636 18.182c0 0.402-0.326 0.727-0.727 0.727s-0.727-0.326-0.727-0.727c0-0.402 0.326-0.727 0.727-0.727s0.727 0.326 0.727 0.727z"></path>
      <path
        d="M32 18.182c0 0.402-0.326 0.727-0.727 0.727s-0.727-0.326-0.727-0.727c0-0.402 0.326-0.727 0.727-0.727s0.727 0.326 0.727 0.727z"></path>
      <path
        d="M36.364 18.182c0 0.402-0.326 0.727-0.727 0.727s-0.727-0.326-0.727-0.727c0-0.402 0.326-0.727 0.727-0.727s0.727 0.326 0.727 0.727z"></path>
      <path
        d="M40.727 18.182c0 0.402-0.326 0.727-0.727 0.727s-0.727-0.326-0.727-0.727c0-0.402 0.326-0.727 0.727-0.727s0.727 0.326 0.727 0.727z"></path>
      <path
        d="M1.455 22.545c0 0.402-0.326 0.727-0.727 0.727s-0.727-0.326-0.727-0.727c0-0.402 0.326-0.727 0.727-0.727s0.727 0.326 0.727 0.727z"></path>
      <path
        d="M5.818 22.545c0 0.402-0.326 0.727-0.727 0.727s-0.727-0.326-0.727-0.727c0-0.402 0.326-0.727 0.727-0.727s0.727 0.326 0.727 0.727z"></path>
      <path
        d="M10.182 22.545c0 0.402-0.326 0.727-0.727 0.727s-0.727-0.326-0.727-0.727c0-0.402 0.326-0.727 0.727-0.727s0.727 0.326 0.727 0.727z"></path>
      <path
        d="M14.545 22.545c0 0.402-0.326 0.727-0.727 0.727s-0.727-0.326-0.727-0.727c0-0.402 0.326-0.727 0.727-0.727s0.727 0.326 0.727 0.727z"></path>
      <path
        d="M18.909 22.545c0 0.402-0.326 0.727-0.727 0.727s-0.727-0.326-0.727-0.727c0-0.402 0.326-0.727 0.727-0.727s0.727 0.326 0.727 0.727z"></path>
      <path
        d="M23.273 22.545c0 0.402-0.326 0.727-0.727 0.727s-0.727-0.326-0.727-0.727c0-0.402 0.326-0.727 0.727-0.727s0.727 0.326 0.727 0.727z"></path>
      <path
        d="M27.636 22.545c0 0.402-0.326 0.727-0.727 0.727s-0.727-0.326-0.727-0.727c0-0.402 0.326-0.727 0.727-0.727s0.727 0.326 0.727 0.727z"></path>
      <path
        d="M32 22.545c0 0.402-0.326 0.727-0.727 0.727s-0.727-0.326-0.727-0.727c0-0.402 0.326-0.727 0.727-0.727s0.727 0.326 0.727 0.727z"></path>
      <path
        d="M36.364 22.545c0 0.402-0.326 0.727-0.727 0.727s-0.727-0.326-0.727-0.727c0-0.402 0.326-0.727 0.727-0.727s0.727 0.326 0.727 0.727z"></path>
      <path
        d="M40.727 22.545c0 0.402-0.326 0.727-0.727 0.727s-0.727-0.326-0.727-0.727c0-0.402 0.326-0.727 0.727-0.727s0.727 0.326 0.727 0.727z"></path>
      <path
        d="M1.455 26.909c0 0.402-0.326 0.727-0.727 0.727s-0.727-0.326-0.727-0.727c0-0.402 0.326-0.727 0.727-0.727s0.727 0.326 0.727 0.727z"></path>
      <path
        d="M5.818 26.909c0 0.402-0.326 0.727-0.727 0.727s-0.727-0.326-0.727-0.727c0-0.402 0.326-0.727 0.727-0.727s0.727 0.326 0.727 0.727z"></path>
      <path
        d="M10.182 26.909c0 0.402-0.326 0.727-0.727 0.727s-0.727-0.326-0.727-0.727c0-0.402 0.326-0.727 0.727-0.727s0.727 0.326 0.727 0.727z"></path>
      <path
        d="M14.545 26.909c0 0.402-0.326 0.727-0.727 0.727s-0.727-0.326-0.727-0.727c0-0.402 0.326-0.727 0.727-0.727s0.727 0.326 0.727 0.727z"></path>
      <path
        d="M18.909 26.909c0 0.402-0.326 0.727-0.727 0.727s-0.727-0.326-0.727-0.727c0-0.402 0.326-0.727 0.727-0.727s0.727 0.326 0.727 0.727z"></path>
      <path
        d="M23.273 26.909c0 0.402-0.326 0.727-0.727 0.727s-0.727-0.326-0.727-0.727c0-0.402 0.326-0.727 0.727-0.727s0.727 0.326 0.727 0.727z"></path>
      <path
        d="M27.636 26.909c0 0.402-0.326 0.727-0.727 0.727s-0.727-0.326-0.727-0.727c0-0.402 0.326-0.727 0.727-0.727s0.727 0.326 0.727 0.727z"></path>
      <path
        d="M32 26.909c0 0.402-0.326 0.727-0.727 0.727s-0.727-0.326-0.727-0.727c0-0.402 0.326-0.727 0.727-0.727s0.727 0.326 0.727 0.727z"></path>
      <path
        d="M36.364 26.909c0 0.402-0.326 0.727-0.727 0.727s-0.727-0.326-0.727-0.727c0-0.402 0.326-0.727 0.727-0.727s0.727 0.326 0.727 0.727z"></path>
      <path
        d="M40.727 26.909c0 0.402-0.326 0.727-0.727 0.727s-0.727-0.326-0.727-0.727c0-0.402 0.326-0.727 0.727-0.727s0.727 0.326 0.727 0.727z"></path>
      <path
        d="M1.455 31.273c0 0.402-0.326 0.727-0.727 0.727s-0.727-0.326-0.727-0.727c0-0.402 0.326-0.727 0.727-0.727s0.727 0.326 0.727 0.727z"></path>
      <path
        d="M5.818 31.273c0 0.402-0.326 0.727-0.727 0.727s-0.727-0.326-0.727-0.727c0-0.402 0.326-0.727 0.727-0.727s0.727 0.326 0.727 0.727z"></path>
      <path
        d="M10.182 31.273c0 0.402-0.326 0.727-0.727 0.727s-0.727-0.326-0.727-0.727c0-0.402 0.326-0.727 0.727-0.727s0.727 0.326 0.727 0.727z"></path>
      <path
        d="M14.545 31.273c0 0.402-0.326 0.727-0.727 0.727s-0.727-0.326-0.727-0.727c0-0.402 0.326-0.727 0.727-0.727s0.727 0.326 0.727 0.727z"></path>
      <path
        d="M18.909 31.273c0 0.402-0.326 0.727-0.727 0.727s-0.727-0.326-0.727-0.727c0-0.402 0.326-0.727 0.727-0.727s0.727 0.326 0.727 0.727z"></path>
      <path
        d="M23.273 31.273c0 0.402-0.326 0.727-0.727 0.727s-0.727-0.326-0.727-0.727c0-0.402 0.326-0.727 0.727-0.727s0.727 0.326 0.727 0.727z"></path>
      <path
        d="M27.636 31.273c0 0.402-0.326 0.727-0.727 0.727s-0.727-0.326-0.727-0.727c0-0.402 0.326-0.727 0.727-0.727s0.727 0.326 0.727 0.727z"></path>
      <path
        d="M32 31.273c0 0.402-0.326 0.727-0.727 0.727s-0.727-0.326-0.727-0.727c0-0.402 0.326-0.727 0.727-0.727s0.727 0.326 0.727 0.727z"></path>
      <path
        d="M36.364 31.273c0 0.402-0.326 0.727-0.727 0.727s-0.727-0.326-0.727-0.727c0-0.402 0.326-0.727 0.727-0.727s0.727 0.326 0.727 0.727z"></path>
      <path
        d="M40.727 31.273c0 0.402-0.326 0.727-0.727 0.727s-0.727-0.326-0.727-0.727c0-0.402 0.326-0.727 0.727-0.727s0.727 0.326 0.727 0.727z"></path>
    </symbol>
    <symbol id="icon-arrow-right" viewBox="0 0 32 32">
      <path
        d="M1.923 21.294c0.131 0.021 0.263 0.031 0.396 0.029h22.575l-0.492 0.229c-0.481 0.228-0.919 0.538-1.294 0.916l-6.331 6.331c-0.834 0.796-0.974 2.076-0.332 3.034 0.747 1.020 2.18 1.242 3.2 0.495 0.082-0.060 0.161-0.126 0.234-0.197l11.448-11.448c0.895-0.894 0.895-2.343 0.002-3.238-0.001-0.001-0.001-0.001-0.002-0.002l-11.448-11.448c-0.895-0.893-2.345-0.891-3.238 0.005-0.070 0.070-0.136 0.145-0.196 0.224-0.642 0.957-0.502 2.238 0.332 3.034l6.319 6.342c0.336 0.336 0.722 0.618 1.145 0.836l0.687 0.309h-22.484c-1.17-0.043-2.196 0.774-2.416 1.923-0.202 1.248 0.645 2.424 1.893 2.627z"></path>
    </symbol>
    <symbol id="icon-arrow-left" viewBox="0 0 32 32">
      <path
        d="M30.077 21.294c-0.131 0.021-0.263 0.031-0.396 0.029h-22.575l0.492 0.229c0.481 0.228 0.919 0.538 1.294 0.916l6.331 6.331c0.834 0.796 0.974 2.076 0.332 3.034-0.747 1.020-2.18 1.242-3.2 0.495-0.082-0.060-0.161-0.126-0.234-0.197l-11.448-11.448c-0.895-0.894-0.895-2.343-0.002-3.238 0.001-0.001 0.001-0.001 0.002-0.002l11.448-11.448c0.895-0.893 2.345-0.891 3.238 0.005 0.070 0.070 0.136 0.145 0.196 0.224 0.642 0.957 0.502 2.238-0.332 3.034l-6.319 6.342c-0.336 0.336-0.722 0.618-1.145 0.836l-0.687 0.309h22.484c1.17-0.043 2.196 0.774 2.415 1.923 0.202 1.248-0.645 2.424-1.894 2.627z"></path>
    </symbol>
  </defs>
</svg>